PathFileType	4	(x/y/z)	S06_P20_T34
DataRate	CameraRate	NumFrames	NumMarkers	Units	OrigDataRate	OrigDataStartFrame	OrigNumFrames
240	240	9	51	mm	240	45	354
Frame#	Time	Sternum			R.Acromium			L.Acromium			Top.Head			R.ASIS			L.ASIS			R.PSIS			L.PSIS			R.Great.Tro			L.Great.Tro			R.Iliac.Crest			L.Iliac.Crest			V.Sacral			R.Thigh.Upper.Post			R.Thigh.Lower.Ant			R.Thigh.Lower.Post			R.Thigh.Upper.Ant			R.Knee.Lat			R.Knee.Med			R.Shank.Upper.Post			R.Shank.Lower.Ant			R.Shank.Lower.Post			R.Shank.Upper.Ant			R.Ankle.Lat			R.Ankle.Med			R.Heel.Upper			R.Heel.Med			R.Heel.Lat			R.Toe.Lat			R.Toe.Med			R.Toe.Tip			L.Thigh.Upper.Post			L.Thigh.Lower.Ant			L.Thigh.Lower.Post			L.Thigh.Upper.Ant			L.Knee.Lat			L.Knee.Med			L.Shank.Upper.Post			L.Shank.Lower.Ant			L.Shank.Lower.Post			L.Shank.Upper.Ant			L.Ankle.Lat			L.Ankle.Med			L.Heel.Upper			L.Heel.Med			L.Heel.Lat			L.Toe.Lat			L.Toe.Med			L.Toe.Tip			Cervical.Spine			Back			
		X1	Y1	Z1	X2	Y2	Z2	X3	Y3	Z3	X4	Y4	Z4	X5	Y5	Z5	X6	Y6	Z6	X7	Y7	Z7	X8	Y8	Z8	X9	Y9	Z9	X10	Y10	Z10	X11	Y11	Z11	X12	Y12	Z12	X13	Y13	Z13	X14	Y14	Z14	X15	Y15	Z15	X16	Y16	Z16	X17	Y17	Z17	X18	Y18	Z18	X19	Y19	Z19	X20	Y20	Z20	X21	Y21	Z21	X22	Y22	Z22	X23	Y23	Z23	X24	Y24	Z24	X25	Y25	Z25	X26	Y26	Z26	X27	Y27	Z27	X28	Y28	Z28	X29	Y29	Z29	X30	Y30	Z30	X31	Y31	Z31	X32	Y32	Z32	X33	Y33	Z33	X34	Y34	Z34	X35	Y35	Z35	X36	Y36	Z36	X37	Y37	Z37	X38	Y38	Z38	X39	Y39	Z39	X40	Y40	Z40	X41	Y41	Z41	X42	Y42	Z42	X43	Y43	Z43	X44	Y44	Z44	X45	Y45	Z45	X46	Y46	Z46	X47	Y47	Z47	X48	Y48	Z48	X49	Y49	Z49	X50	Y50	Z50	X51	Y51	Z51	

45	0.18333	-1070.2	1280.4	332.85	-1181.1	1493	503.36	-1202.9	1493.8	151.83	-1157.5	1810.6	324.48	NaN	NaN	NaN	NaN	NaN	NaN	-1333.9	1073.1	361.72	-1337.1	1079.4	282.18	-1194.6	974.95	508.42	-1218.6	983.03	148.62	-1221.9	1124	489.28	-1199.3	1122.7	169.23	-1351.3	1043	324.32	-1125.3	733.61	512.37	-1050.2	669.25	480.19	-1113.8	646.25	497.07	-1060.4	760.14	491.73	-1081.4	543.58	485.59	-1060.6	544.29	354.88	-1266.1	422.39	481.15	-1291.3	340.65	461.66	-1325.8	374.74	465.57	-1216.3	381.71	473.93	-1408.1	270	443.9	-1389.5	253.02	356.47	-1476.9	294.22	391.03	-1491.2	266.17	361.35	-1497	271.76	425.37	-1396.9	128.83	476.41	-1371.7	107.61	360.05	-1317	68.288	410.05	-1121.1	723.75	166.21	-1062.3	654.28	229.04	-1126.8	635.05	187.29	-1063.5	746.92	204.99	-1129.7	541.44	206.7	-1104.1	552.76	324.76	-1190.5	319.04	222.82	-1130.5	253.12	228.16	-1201.5	248.97	241.99	-1123.8	322.27	213.83	-1168.1	105.4	248.03	-1161.7	112.86	338.56	-1246.2	71.799	293.82	-1242.2	45.894	326.39	-1240.3	46.195	264.51	-1060.9	43.97	228.78	-1040.8	46.857	347.66	-969.37	57.338	295.37	-1246.6	1548.1	330.71	-1320.1	1280.3	332.38
46	0.1875	-1065.1	1280.7	332.89	-1176	1493.4	503.27	-1197.5	1494	151.7	-1152.1	1810.9	324.25	NaN	NaN	NaN	NaN	NaN	NaN	-1329.1	1073.5	361.53	-1332.3	1080	282.01	-1189.7	975.48	508.23	-1214.1	983.51	148.51	-1217.1	1124.4	489.12	-1194.5	1123.2	169.19	-1346.5	1043.5	324.13	-1117.6	735.05	511.86	-1041.7	671.72	479.73	-1105	647.84	496.48	-1053.1	762.43	491.24	-1071.3	545.75	484.99	-1051.1	546.64	354.18	-1255.2	423.43	480.85	-1278.2	340.24	461.32	-1314.9	375.41	465.51	-1205.2	383.21	473.81	-1396.2	270.05	444.3	-1378	253.04	356.79	-1465.6	293.09	391.39	-1479.8	264.68	361.89	-1485.4	270.61	425.99	-1383	129.5	477.37	-1357.8	107.86	361.04	-1303	69.083	410.73	-1118.1	723.76	165.79	-1059.4	653.95	228.4	-1124.2	635.1	186.88	-1060.2	746.6	204.36	-1127.6	541.42	206.36	-1101.5	552.65	324.32	-1189.5	319.27	222.7	-1129.8	253.08	227.89	-1200.8	249.29	241.93	-1122.8	322.19	213.52	-1167.9	105.5	247.94	-1161.4	113.03	338.43	-1246.2	71.995	293.83	-1242.2	46.06	326.4	-1240.2	46.35	264.52	-1060.9	43.876	228.67	-1040.6	46.959	347.5	-969.28	57.132	295.22	-1241.1	1548.5	330.49	-1315.1	1280.8	332.14
47	0.19167	-1060.1	1281	332.91	-1171	1493.9	503.17	-1192.1	1494.3	151.57	-1146.7	1811.3	324.03	NaN	NaN	NaN	NaN	NaN	NaN	-1324.3	1074.1	361.37	-1327.5	1080.5	281.87	-1184.9	976.05	508.04	-1209.5	984.01	148.41	-1212.2	1124.8	488.96	-1189.8	1123.8	169.16	-1341.8	1044	323.96	-1109.9	736.53	511.3	-1033.3	674.23	479.25	-1096.3	649.48	495.86	-1045.8	764.73	490.71	-1061.4	547.96	484.37	-1041.7	549.01	353.46	-1244.4	424.31	480.54	-1265	339.83	461.01	-1303.9	375.83	465.46	-1194.1	384.6	473.68	-1384	269.74	444.71	-1366.3	252.78	357.12	-1454.2	291.57	391.83	-1468.2	262.78	362.5	-1473.6	268.99	426.68	-1368.7	129.82	478.24	-1343.5	107.9	361.91	-1288.5	69.809	411.27	-1115.1	723.78	165.4	-1056.6	653.62	227.79	-1121.7	635.16	186.49	-1056.9	746.27	203.74	-1125.5	541.42	206.05	-1098.9	552.53	323.92	-1188.5	319.5	222.58	-1129	253.05	227.64	-1200.1	249.61	241.87	-1121.7	322.12	213.23	-1167.7	105.6	247.84	-1161.2	113.2	338.3	-1246.2	72.203	293.84	-1242.2	46.236	326.41	-1240.1	46.507	264.53	-1060.9	43.784	228.57	-1040.5	47.055	347.34	-969.19	56.934	295.08	-1235.7	1548.9	330.29	-1310	1281.3	331.91
48	0.19583	-1055.1	1281.3	332.93	-1165.9	1494.3	503.08	-1186.8	1494.6	151.46	-1141.2	1811.8	323.81	NaN	NaN	NaN	NaN	NaN	NaN	-1319.5	1074.6	361.22	-1322.7	1081.1	281.73	-1180.1	976.66	507.85	-1205	984.51	148.33	-1207.3	1125.3	488.81	-1185	1124.3	169.12	-1337	1044.6	323.81	-1102.3	738.05	510.7	-1025	676.75	478.75	-1087.7	651.17	495.21	-1038.6	767.04	490.14	-1051.6	550.2	483.72	-1032.4	551.4	352.74	-1233.6	425.01	480.23	-1251.7	339.42	460.73	-1292.9	376	465.4	-1183	385.85	473.53	-1371.7	269.08	445.14	-1354.4	252.24	357.45	-1442.6	289.65	392.34	-1456.5	260.49	363.17	-1461.5	266.92	427.43	-1354	129.82	479.01	-1328.9	107.73	362.66	-1273.6	70.459	411.67	-1112.1	723.8	165.04	-1053.8	653.28	227.21	-1119.1	635.22	186.13	-1053.7	745.94	203.16	-1123.5	541.42	205.77	-1096.4	552.42	323.54	-1187.4	319.73	222.46	-1128.3	253.04	227.4	-1199.3	249.93	241.8	-1120.7	322.05	212.96	-1167.6	105.72	247.75	-1161	113.38	338.18	-1246.2	72.422	293.86	-1242.2	46.422	326.42	-1240.1	46.669	264.55	-1060.8	43.693	228.48	-1040.3	47.142	347.21	-969.1	56.742	294.94	-1230.3	1549.3	330.1	-1305	1281.8	331.71
49	0.2	-1050.1	1281.7	332.93	-1160.9	1494.8	502.99	-1181.5	1495	151.36	-1135.7	1812.2	323.6	NaN	NaN	NaN	NaN	NaN	NaN	-1314.7	1075.2	361.09	-1317.8	1081.7	281.61	-1175.2	977.31	507.66	-1200.5	985.01	148.26	-1202.5	1125.8	488.65	-1180.3	1124.9	169.09	-1332.2	1045.1	323.68	-1094.9	739.6	510.08	-1016.9	679.28	478.22	-1079.2	652.9	494.55	-1031.5	769.33	489.54	-1041.9	552.45	483.06	-1023.3	553.79	352	-1222.8	425.54	479.93	-1238.3	339	460.47	-1281.8	375.91	465.34	-1171.8	386.97	473.37	-1359.2	268.07	445.57	-1342.3	251.44	357.79	-1430.9	287.35	392.91	-1444.6	257.81	363.88	-1449.2	264.41	428.24	-1338.9	129.49	479.68	-1313.9	107.37	363.28	-1258.3	71.03	411.94	-1109.1	723.83	164.71	-1051.1	652.95	226.67	-1116.6	635.29	185.8	-1050.4	745.61	202.6	-1121.5	541.43	205.51	-1093.9	552.31	323.19	-1186.4	319.97	222.36	-1127.6	253.04	227.19	-1198.6	250.26	241.75	-1119.7	322	212.71	-1167.5	105.84	247.67	-1160.7	113.56	338.05	-1246.3	72.651	293.88	-1242.2	46.614	326.43	-1240	46.834	264.56	-1060.8	43.603	228.39	-1040.3	47.214	347.09	-969.01	56.554	294.8	-1225	1549.8	329.93	-1300	1282.4	331.51
50	0.20417	-1045.1	1282	332.92	-1155.8	1495.3	502.9	-1176.3	1495.3	151.26	-1130.2	1812.6	323.39	NaN	NaN	NaN	NaN	NaN	NaN	-1310	1075.8	360.98	-1313	1082.3	281.51	-1170.3	977.98	507.47	-1196.1	985.52	148.19	-1197.5	1126.3	488.49	-1175.5	1125.4	169.05	-1327.4	1045.7	323.57	-1087.5	741.17	509.43	-1008.8	681.81	477.66	-1070.9	654.64	493.87	-1024.4	771.62	488.91	-1032.4	554.71	482.37	-1014.3	556.18	351.25	-1212.1	425.88	479.64	-1225	338.55	460.25	-1270.6	375.57	465.28	-1160.6	387.95	473.2	-1346.5	266.73	446	-1330.1	250.37	358.12	-1419	284.68	393.54	-1432.5	254.76	364.63	-1436.7	261.48	429.08	-1323.6	128.85	480.27	-1298.7	106.82	363.78	-1242.6	71.518	412.1	-1106.1	723.86	164.42	-1048.4	652.62	226.18	-1114.1	635.36	185.5	-1047.2	745.28	202.08	-1119.5	541.45	205.29	-1091.5	552.2	322.88	-1185.4	320.22	222.28	-1126.8	253.05	227	-1197.9	250.58	241.69	-1118.7	321.95	212.49	-1167.3	105.97	247.59	-1160.5	113.73	337.93	-1246.4	72.891	293.9	-1242.2	46.81	326.44	-1239.9	47.004	264.58	-1060.8	43.517	228.31	-1040.2	47.269	346.99	-968.91	56.369	294.67	-1219.7	1550.2	329.77	-1295	1282.9	331.33
51	0.20833	-1040.1	1282.5	332.91	-1150.8	1495.9	502.81	-1171.1	1495.7	151.18	-1124.6	1813	323.18	NaN	NaN	NaN	NaN	NaN	NaN	-1305.2	1076.5	360.88	-1308.2	1082.9	281.41	-1165.4	978.67	507.28	-1191.6	986.03	148.13	-1192.6	1126.9	488.34	-1170.7	1126	169	-1322.5	1046.3	323.47	-1080.1	742.74	508.75	-1000.8	684.32	477.06	-1062.6	656.4	493.17	-1017.4	773.87	488.26	-1023.1	556.96	481.66	-1005.4	558.56	350.5	-1201.3	426.04	479.36	-1211.8	338.05	460.05	-1259.3	374.98	465.23	-1149.4	388.78	473	-1333.6	265.06	446.44	-1317.6	249.04	358.44	-1406.9	281.66	394.21	-1420.2	251.36	365.4	-1423.9	258.15	429.95	-1307.9	127.92	480.76	-1283.2	106.09	364.17	-1226.5	71.922	412.16	-1103.2	723.9	164.16	-1045.7	652.28	225.73	-1111.7	635.45	185.24	-1043.9	744.94	201.61	-1117.6	541.47	205.1	-1089.1	552.09	322.61	-1184.4	320.47	222.21	-1126.1	253.06	226.84	-1197.1	250.91	241.65	-1117.7	321.91	212.3	-1167.2	106.11	247.53	-1160.3	113.91	337.83	-1246.4	73.139	293.92	-1242.2	47.007	326.46	-1239.9	47.177	264.61	-1060.8	43.434	228.24	-1040.1	47.305	346.9	-968.8	56.184	294.55	-1214.5	1550.6	329.61	-1289.9	1283.4	331.15
52	0.2125	-1035.1	1282.9	332.88	-1145.8	1496.4	502.72	-1165.9	1496.1	151.1	-1119	1813.4	322.98	NaN	NaN	NaN	NaN	NaN	NaN	-1300.4	1077.1	360.8	-1303.3	1083.5	281.33	-1160.5	979.39	507.1	-1187.2	986.54	148.07	-1187.6	1127.5	488.19	-1165.9	1126.6	168.95	-1317.7	1046.9	323.4	-1072.9	744.33	508.06	-993	686.79	476.43	-1054.5	658.16	492.47	-1010.5	776.1	487.57	-1013.9	559.19	480.94	-996.72	560.92	349.75	-1190.6	426.01	479.09	-1198.7	337.51	459.88	-1248	374.15	465.18	-1138.2	389.47	472.8	-1320.5	263.08	446.86	-1305.1	247.45	358.75	-1394.7	278.28	394.9	-1407.7	247.62	366.18	-1410.9	254.43	430.82	-1292	126.73	481.17	-1267.4	105.2	364.46	-1210.2	72.245	412.13	-1100.2	723.93	163.94	-1043	651.95	225.34	-1109.2	635.53	185	-1040.7	744.6	201.18	-1115.7	541.5	204.94	-1086.8	551.98	322.37	-1183.4	320.72	222.16	-1125.4	253.09	226.71	-1196.4	251.23	241.63	-1116.8	321.88	212.14	-1167.2	106.26	247.48	-1160.2	114.08	337.73	-1246.5	73.395	293.94	-1242.2	47.2	326.48	-1239.8	47.355	264.63	-1060.7	43.355	228.18	-1040.1	47.319	346.84	-968.7	56	294.44	-1209.2	1551	329.47	-1284.9	1284	330.99
53	0.21667	-1030.1	1283.3	332.84	-1140.8	1497	502.62	-1160.8	1496.6	151.02	-1113.4	1813.9	322.79	NaN	NaN	NaN	NaN	NaN	NaN	-1295.7	1077.8	360.74	-1298.5	1084.1	281.27	-1155.5	980.11	506.92	-1182.7	987.05	148.02	-1182.7	1128.1	488.04	-1161.1	1127.2	168.88	-1312.9	1047.5	323.34	-1065.8	745.9	507.37	-985.28	689.23	475.76	-1046.5	659.92	491.76	-1003.7	778.29	486.87	-1004.8	561.39	480.2	-988.15	563.25	348.99	-1179.9	425.79	478.83	-1185.6	336.9	459.73	-1236.6	373.08	465.14	-1126.9	390.01	472.58	-1307.2	260.8	447.26	-1292.3	245.62	359.05	-1382.2	274.57	395.61	-1395	243.55	366.96	-1397.7	250.35	431.69	-1275.8	125.29	481.49	-1251.4	104.15	364.64	-1193.5	72.487	412.03	-1097.2	723.97	163.76	-1040.4	651.6	225	-1106.7	635.63	184.8	-1037.5	744.25	200.8	-1113.8	541.54	204.82	-1084.5	551.88	322.18	-1182.4	320.98	222.13	-1124.6	253.11	226.6	-1195.7	251.55	241.62	-1115.8	321.86	212.01	-1167.1	106.42	247.45	-1160	114.25	337.65	-1246.6	73.657	293.97	-1242.2	47.387	326.5	-1239.7	47.537	264.66	-1060.7	43.281	228.13	-1040.1	47.311	346.8	-968.59	55.815	294.33	-1204.1	1551.5	329.34	-1279.9	1284.5	330.83
